<svg width="28" height="28" viewBox="0 0 28 28" fill="none" xmlns="http://www.w3.org/2000/svg">
<path d="M13.7397 11.6666L19.3747 13.1762M12.8332 15.0476L16.2142 15.9529M23.6972 14.7547C22.9913 17.3856 22.639 18.7016 21.8398 19.5544C21.2092 20.2278 20.3932 20.6991 19.4948 20.9089C19.3821 20.9354 19.2673 20.9556 19.1507 20.9696C18.0832 21.1014 16.78 20.7526 14.4093 20.1179C11.7785 19.4121 10.4625 19.0597 9.60966 18.2606C8.9361 17.6297 8.46474 16.8132 8.25516 15.9144C7.98916 14.7757 8.3415 13.4609 9.04733 10.8301L9.6505 8.57608L9.93516 7.52024C10.466 5.57658 10.823 4.50674 11.5078 3.77524C12.1386 3.10231 12.9546 2.63137 13.8528 2.42191C14.9915 2.15591 16.3075 2.50824 18.9395 3.21408C21.5692 3.91874 22.8852 4.27108 23.738 5.06908C24.4118 5.70031 24.8831 6.51721 25.0925 7.41641C25.2803 8.22141 25.159 9.11508 24.823 10.4999" stroke="#07223D" stroke-width="1.75" stroke-linecap="round"/>
<path d="M3.81727 19.4214C4.52194 22.0522 4.87544 23.3682 5.6746 24.221C6.3052 24.8944 7.12124 25.3658 8.0196 25.5755C9.15827 25.8404 10.4743 25.488 13.1063 24.7834C15.7359 24.0787 17.0519 23.7264 17.9048 22.9272C18.4783 22.39 18.9069 21.7166 19.1508 20.9695M9.93527 7.51904C9.52538 7.6256 9.07233 7.74615 8.5761 7.88071C5.94527 8.58538 4.62927 8.93771 3.77644 9.73571C3.10268 10.3669 2.6313 11.1838 2.42194 12.083C2.2341 12.888 2.35544 13.7817 2.69144 15.1665" stroke="#07223D" stroke-width="1.75" stroke-linecap="round" stroke-linejoin="round"/>
</svg>
